<svg xmlns="http://www.w3.org/2000/svg" viewBox="0 0 24 24" fill="none">
  <path
    d="M13.45 16.75 Q13.28 19 11.93 20.12 Q10.59 21.25 8.38 21.25 Q7.13 21.25 5.98 20.78 Q4.82 20.31 4.08 19.37 Q3.35 18.43 3.35 17.07 Q3.35 16.37 3.61 15.68 Q3.88 15 4.49 14.38 Q6 12.87 8.75 12.87 Q9.19 12.87 9.63 12.92 Q10.06 12.96 10.55 13.03 Q10.52 10.95 10.44 8.33 Q10.35 5.7 10.24 3.06 Q10.24 2.75 10.55 2.75 L13.1 2.77 Q13.37 2.77 13.41 3.08 L13.43 6.71 L19.66 6.64 Q19.97 6.64 19.97 6.95 L19.97 9.11 Q19.97 9.42 19.66 9.42 L13.45 9.46 L13.48 13.79 Q15.12 14.41 16.92 15.41 Q18.72 16.42 20.52 17.82 Q20.65 17.9 20.65 18.06 Q20.65 18.14 20.58 18.25 L19.01 20.4 Q18.92 20.53 18.79 20.53 Q18.72 20.53 18.59 20.44 Q17.52 19.48 16.17 18.48 Q14.81 17.49 13.45 16.75 Z M6.19 17.1 Q6.19 17.64 6.53 17.99 Q6.87 18.34 7.38 18.49 Q7.88 18.65 8.34 18.65 Q9.34 18.65 9.82 18.22 Q10.31 17.79 10.45 17.07 Q10.59 16.35 10.59 15.52 Q9.74 15.28 8.86 15.28 Q8.18 15.28 7.57 15.48 Q6.96 15.67 6.57 16.18 Q6.19 16.57 6.19 17.1 Z"
    fill="#c83a45"
    stroke="#fff"
    stroke-linejoin="round"
    stroke-width="1.35"
    paint-order="stroke fill"
  />
</svg>
